<svg xmlns="http://www.w3.org/2000/svg" width="20" height="20" viewBox="0 0 20 20">
  <g fill="#2B2C31">
    <path d="M2.37978723,0.0172043011 C1.06468085,0.0172043011 0.000212765957,1.09505376 0,2.42129032 C0,3.7488172 1.06446809,4.82645161 2.38,4.82645161 C3.69191489,4.82645161 4.75787234,3.7488172 4.75787234,2.42129032 C4.75787234,1.09483871 3.69170213,0.0172043011 2.37978723,0.0172043011 Z"/>
    <rect width="4.104" height="13.345" x=".327" y="6.651"/>
    <path d="M14.8776596,6.31892473 C12.8814894,6.31892473 11.5429787,7.42516129 10.9951064,8.47419355 L10.9402128,8.47419355 L10.9402128,6.65075269 L7.00446809,6.65075269 L7.00425532,6.65075269 L7.00425532,19.9954839 L11.1042553,19.9954839 L11.1042553,13.3937634 C11.1042553,11.6533333 11.4321277,9.96752688 13.5670213,9.96752688 C15.6712766,9.96752688 15.6993617,11.9580645 15.6993617,13.5053763 L15.6993617,19.9952688 L19.8,19.9952688 L19.8,12.6756989 C19.8,9.0827957 19.0329787,6.31892473 14.8776596,6.31892473 Z"/>
  </g>
</svg>
