<svg xmlns="http://www.w3.org/2000/svg" width="22" height="18" viewBox="0 0 22 18">
  <path fill="#2B2C31" d="M21.8929888,2.131425 C21.8615602,2.0943 21.8097031,2.0817 21.7654786,2.10195 C21.1101929,2.393325 20.4207847,2.6028 19.7107235,2.72655 C20.4645602,2.1582 21.0262337,1.37115 21.3142541,0.468675 C21.3281725,0.425475 21.3138051,0.378225 21.2785602,0.3501 C21.2430909,0.321975 21.1939276,0.318375 21.1550909,0.34155 C20.3060704,0.846225 19.3865602,1.20195 18.4208051,1.399275 C17.56505,0.509175 16.3700909,0 15.1333766,0 C12.6181929,0 10.5721929,2.05065 10.5721929,4.571325 C10.5721929,4.8762 10.6016011,5.17815 10.6599684,5.471325 C7.17633575,5.255775 3.91898881,3.579525 1.70417248,0.8568 C1.68149901,0.8289 1.64715208,0.813375 1.61123371,0.816975 C1.57553983,0.819675 1.54366228,0.839925 1.5257031,0.87075 C1.12162146,1.56555 0.908131668,2.360475 0.908131668,3.169125 C0.908131668,4.57065 1.54343779,5.88105 2.62525412,6.745725 C2.06829493,6.678675 1.52435616,6.50295 1.03384595,6.230025 C1.00084595,6.21135 0.959764321,6.211575 0.926764321,6.2307 C0.893764321,6.2496 0.87288677,6.2847 0.871988811,6.32295 L0.871539831,6.38145 C0.871539831,8.3943 2.19490718,10.161675 4.0777031,10.748475 C3.58180514,10.828575 3.06727453,10.823175 2.56149901,10.726425 C2.52423371,10.71945 2.48517248,10.732275 2.45958065,10.761075 C2.4342133,10.789875 2.42568269,10.83015 2.43735616,10.8666 C3.00194799,12.63285 4.57068269,13.871475 6.39668269,14.025825 C4.87351942,15.1443 3.07311126,15.733575 1.17078473,15.733575 C0.820356158,15.733575 0.467458199,15.71265 0.121743913,15.671925 C0.0723561577,15.6663 0.0234173822,15.695775 0.00635615769,15.74325 C-0.0107050668,15.791175 0.00747860667,15.844725 0.0501316679,15.87195 C2.1087031,17.195175 4.4889684,17.89425 6.93388677,17.89425 C14.9313357,17.89425 19.7102745,11.3832 19.7102745,5.0886 C19.7102745,4.913325 19.7069072,4.73895 19.699948,4.565025 C20.5626623,3.93255 21.3032541,3.158325 21.900397,2.26215 C21.9271113,2.2221 21.9241929,2.168775 21.8929888,2.131425 Z"/>
</svg>
