<svg xmlns="http://www.w3.org/2000/svg" width="24" height="20" viewBox="0 0 24 20">
  <path fill="#2B2C31" d="M23.8831837,2.3815 C23.848898,2.34025 23.7923265,2.32625 23.7440816,2.34875 C23.0292245,2.6725 22.2771429,2.90525 21.5025306,3.04275 C22.324898,2.41125 22.9376327,1.53675 23.2518367,0.534 C23.2670204,0.486 23.2513469,0.4335 23.212898,0.40225 C23.1742041,0.371 23.1205714,0.367 23.0782041,0.39275 C22.152,0.9535 21.148898,1.34875 20.0953469,1.568 C19.1617959,0.579 17.8582041,0.0132500002 16.5090612,0.0132500002 C13.7652245,0.0132500002 11.5332245,2.29175 11.5332245,5.0925 C11.5332245,5.43125 11.5653061,5.76675 11.6289796,6.0925 C7.82865306,5.853 4.27518367,3.9905 1.85902041,0.96525 C1.83428571,0.93425 1.79681633,0.917 1.75763265,0.921 C1.71869388,0.924 1.68391837,0.9465 1.66432653,0.98075 C1.2235102,1.75275 0.990612245,2.636 0.990612245,3.5345 C0.990612245,5.09175 1.68367347,6.54775 2.86383673,7.5085 C2.2562449,7.434 1.66285714,7.23875 1.1277551,6.9355 C1.0917551,6.91475 1.04693878,6.915 1.01093878,6.93625 C0.974938776,6.95725 0.952163265,6.99625 0.951183673,7.03875 L0.950693878,7.10375 C0.950693878,9.34025 2.39436735,11.304 4.44832653,11.956 C3.90734694,12.045 3.34604082,12.039 2.79428571,11.9315 C2.75363265,11.92375 2.71102041,11.938 2.68310204,11.97 C2.65542857,12.002 2.64612245,12.04675 2.65885714,12.08725 C3.27477551,14.04975 4.98612245,15.426 6.97812245,15.5975 C5.3164898,16.84025 3.35240816,17.495 1.27714286,17.495 C0.894857143,17.495 0.509877551,17.47175 0.132734694,17.4265 C0.0788571429,17.42025 0.0254693878,17.453 0.00685714286,17.50575 C-0.011755102,17.559 0.00808163265,17.6185 0.0546122449,17.64875 C2.30032653,19.119 4.89697959,19.89575 7.56416327,19.89575 C16.2886531,19.89575 21.5020408,12.66125 21.5020408,5.66725 C21.5020408,5.4725 21.4983673,5.27875 21.4907755,5.0855 C22.4319184,4.38275 23.2398367,3.5225 23.8912653,2.52675 C23.9204082,2.48225 23.9172245,2.423 23.8831837,2.3815 Z"/>
</svg>
